{
  "accessors": [
    {
      "bufferView": 0,
      "componentType": 5126,
      "count": 4,
      "max": [
        16.0,
        16.0,
        0.0
      ],
      "min": [
        -16.0,
        -16.0,
        0.0
      ],
      "type": "VEC3"
    },
    {
      "bufferView": 1,
      "componentType": 5126,
      "count": 4,
      "type": "VEC3"
    },
    {
      "bufferView": 2,
      "componentType": 5126,
      "count": 4,
      "type": "VEC2"
    },
    {
      "bufferView": 3,
      "componentType": 5125,
      "count": 6,
      "type": "SCALAR"
    },
    {
      "bufferView": 4,
      "componentType": 5126,
      "count": 4,
      "max": [
        16.0,
        16.0,
        0.0
      ],
      "min": [
        -16.0,
        -16.0,
        0.0
      ],
      "type": "VEC3"
    },
    {
      "bufferView": 5,
      "componentType": 5126,
      "count": 4,
      "type": "VEC3"
    },
    {
      "bufferView": 6,
      "componentType": 5126,
      "count": 4,
      "type": "VEC2"
    },
    {
      "bufferView": 7,
      "componentType": 5125,
      "count": 6,
      "type": "SCALAR"
    },
    {
      "bufferView": 8,
      "componentType": 5126,
      "count": 4225,
      "max": [
        20.0,
        0.0,
        20.0
      ],
      "min": [
        -20.0,
        0.0,
        -20.0
      ],
      "type": "VEC3"
    },
    {
      "bufferView": 9,
      "componentType": 5126,
      "count": 4225,
      "type": "VEC3"
    },
    {
      "bufferView": 10,
      "componentType": 5126,
      "count": 4225,
      "type": "VEC2"
    },
    {
      "bufferView": 11,
      "componentType": 5125,
      "count": 24576,
      "type": "SCALAR"
    },
    {
      "bufferView": 12,
      "componentType": 5126,
      "count": 327680,
      "max": [
        1.4124950170517,
        1.46618509292603,
        1.39687550067902
      ],
      "min": [
        -1.40264630317688,
        -1.49919104576111,
        -1.41494631767273
      ],
      "type": "VEC3"
    },
    {
      "bufferView": 13,
      "componentType": 5126,
      "count": 327680,
      "type": "VEC3"
    },
    {
      "bufferView": 14,
      "componentType": 5126,
      "count": 327680,
      "type": "VEC2"
    },
    {
      "bufferView": 15,
      "componentType": 5126,
      "count": 327680,
      "type": "SCALAR"
    },
    {
      "bufferView": 16,
      "componentType": 5125,
      "count": 524288,
      "type": "SCALAR"
    },
    {
      "bufferView": 17,
      "componentType": 5126,
      "count": 8385,
      "max": [
        1.0,
        1.0,
        1.0
      ],
      "min": [
        -1.0,
        -1.0,
        -1.0
      ],
      "type": "VEC3"
    },
    {
      "bufferView": 18,
      "componentType": 5126,
      "count": 8385,
      "type": "VEC3"
    },
    {
      "bufferView": 19,
      "componentType": 5126,
      "count": 8385,
      "type": "VEC2"
    },
    {
      "bufferView": 20,
      "componentType": 5125,
      "count": 49152,
      "type": "SCALAR"
    },
    {
      "bufferView": 21,
      "componentType": 5126,
      "count": 327680,
      "max": [
        1.09736621379852,
        1.09342861175537,
        1.07865357398987
      ],
      "min": [
        -1.09634685516357,
        -1.08134150505066,
        -1.0973949432373
      ],
      "type": "VEC3"
    },
    {
      "bufferView": 22,
      "componentType": 5126,
      "count": 327680,
      "type": "VEC3"
    },
    {
      "bufferView": 23,
      "componentType": 5126,
      "count": 327680,
      "type": "VEC2"
    },
    {
      "bufferView": 24,
      "componentType": 5126,
      "count": 327680,
      "type": "SCALAR"
    },
    {
      "bufferView": 25,
      "componentType": 5125,
      "count": 524288,
      "type": "SCALAR"
    }
  ],
  "asset": {
    "generator": "Yocto/gltf",
    "version": "2.0"
  },
  "bufferViews": [
    {
      "buffer": 0,
      "byteLength": 48,
      "target": 34962
    },
    {
      "buffer": 0,
      "byteLength": 48,
      "byteOffset": 48,
      "target": 34962
    },
    {
      "buffer": 0,
      "byteLength": 32,
      "byteOffset": 96,
      "target": 34962
    },
    {
      "buffer": 0,
      "byteLength": 24,
      "byteOffset": 128,
      "target": 34962
    },
    {
      "buffer": 0,
      "byteLength": 48,
      "byteOffset": 152,
      "target": 34962
    },
    {
      "buffer": 0,
      "byteLength": 48,
      "byteOffset": 200,
      "target": 34962
    },
    {
      "buffer": 0,
      "byteLength": 32,
      "byteOffset": 248,
      "target": 34962
    },
    {
      "buffer": 0,
      "byteLength": 24,
      "byteOffset": 280,
      "target": 34962
    },
    {
      "buffer": 0,
      "byteLength": 50700,
      "byteOffset": 304,
      "target": 34962
    },
    {
      "buffer": 0,
      "byteLength": 50700,
      "byteOffset": 51004,
      "target": 34962
    },
    {
      "buffer": 0,
      "byteLength": 33800,
      "byteOffset": 101704,
      "target": 34962
    },
    {
      "buffer": 0,
      "byteLength": 98304,
      "byteOffset": 135504,
      "target": 34962
    },
    {
      "buffer": 0,
      "byteLength": 3932160,
      "byteOffset": 233808,
      "target": 34962
    },
    {
      "buffer": 0,
      "byteLength": 3932160,
      "byteOffset": 4165968,
      "target": 34962
    },
    {
      "buffer": 0,
      "byteLength": 2621440,
      "byteOffset": 8098128,
      "target": 34962
    },
    {
      "buffer": 0,
      "byteLength": 1310720,
      "byteOffset": 10719568,
      "target": 34962
    },
    {
      "buffer": 0,
      "byteLength": 2097152,
      "byteOffset": 12030288,
      "target": 34962
    },
    {
      "buffer": 0,
      "byteLength": 100620,
      "byteOffset": 14127440,
      "target": 34962
    },
    {
      "buffer": 0,
      "byteLength": 100620,
      "byteOffset": 14228060,
      "target": 34962
    },
    {
      "buffer": 0,
      "byteLength": 67080,
      "byteOffset": 14328680,
      "target": 34962
    },
    {
      "buffer": 0,
      "byteLength": 196608,
      "byteOffset": 14395760,
      "target": 34962
    },
    {
      "buffer": 0,
      "byteLength": 3932160,
      "byteOffset": 14592368,
      "target": 34962
    },
    {
      "buffer": 0,
      "byteLength": 3932160,
      "byteOffset": 18524528,
      "target": 34962
    },
    {
      "buffer": 0,
      "byteLength": 2621440,
      "byteOffset": 22456688,
      "target": 34962
    },
    {
      "buffer": 0,
      "byteLength": 1310720,
      "byteOffset": 25078128,
      "target": 34962
    },
    {
      "buffer": 0,
      "byteLength": 2097152,
      "byteOffset": 26388848,
      "target": 34962
    }
  ],
  "buffers": [
    {
      "byteLength": 28486000,
      "uri": "lines_al.bin"
    }
  ],
  "cameras": [
    {
      "name": "cam3",
      "perspective": {
        "aspectRatio": 2.34999990463257,
        "yfov": 0.130899697542191,
        "zfar": 10000.0,
        "znear": 0.00999999977648258
      },
      "type": "perspective"
    }
  ],
  "images": [
    {
      "uri": "grid.png"
    }
  ],
  "materials": [
    {
      "emissiveFactor": [
        10.0,
        10.0,
        10.0
      ],
      "extensions": {
        "KHR_materials_pbrSpecularGlossiness": {
          "diffuseFactor": [
            0.0,
            0.0,
            0.0,
            1.0
          ],
          "glossinessFactor": 0.999899983406067,
          "specularFactor": [
            0.0,
            0.0,
            0.0
          ]
        }
      },
      "name": "light_areat"
    },
    {
      "emissiveFactor": [
        40.0,
        40.0,
        40.0
      ],
      "extensions": {
        "KHR_materials_pbrSpecularGlossiness": {
          "diffuseFactor": [
            0.0,
            0.0,
            0.0,
            1.0
          ],
          "glossinessFactor": 0.999899983406067,
          "specularFactor": [
            0.0,
            0.0,
            0.0
          ]
        }
      },
      "name": "light_areaf"
    },
    {
      "extensions": {
        "KHR_materials_pbrSpecularGlossiness": {
          "diffuseTexture": {
            "index": 0
          },
          "glossinessFactor": 0.999899983406067,
          "specularFactor": [
            0.0,
            0.0,
            0.0
          ]
        }
      },
      "name": "matte_grid"
    },
    {
      "extensions": {
        "KHR_materials_pbrSpecularGlossiness": {
          "diffuseFactor": [
            0.200000002980232,
            0.200000002980232,
            0.200000002980232,
            1.0
          ],
          "glossinessFactor": 0.999899983406067,
          "specularFactor": [
            0.0,
            0.0,
            0.0
          ]
        }
      },
      "name": "matte_gray"
    }
  ],
  "meshes": [
    {
      "name": "alightt_light_areat",
      "primitives": [
        {
          "attributes": {
            "NORMAL": 1,
            "POSITION": 0,
            "TEXCOORD_0": 2
          },
          "indices": 3,
          "material": 0
        }
      ]
    },
    {
      "name": "alightf_light_areaf",
      "primitives": [
        {
          "attributes": {
            "NORMAL": 5,
            "POSITION": 4,
            "TEXCOORD_0": 6
          },
          "indices": 7,
          "material": 1
        }
      ]
    },
    {
      "name": "floor_matte_grid",
      "primitives": [
        {
          "attributes": {
            "NORMAL": 9,
            "POSITION": 8,
            "TEXCOORD_0": 10
          },
          "indices": 11,
          "material": 2
        }
      ]
    },
    {
      "name": "lines1_matte_gray",
      "primitives": [
        {
          "attributes": {
            "NORMAL": 13,
            "POSITION": 12,
            "RADIUS": 15,
            "TEXCOORD_0": 14
          },
          "indices": 16,
          "material": 3,
          "mode": 1
        }
      ]
    },
    {
      "name": "linesi_matte_gray",
      "primitives": [
        {
          "attributes": {
            "NORMAL": 18,
            "POSITION": 17,
            "TEXCOORD_0": 19
          },
          "indices": 20,
          "material": 3
        }
      ]
    },
    {
      "name": "lines2_matte_gray",
      "primitives": [
        {
          "attributes": {
            "NORMAL": 22,
            "POSITION": 21,
            "RADIUS": 24,
            "TEXCOORD_0": 23
          },
          "indices": 25,
          "material": 3,
          "mode": 1
        }
      ]
    }
  ],
  "nodes": [
    {
      "matrix": [
        1.0,
        -0.0,
        -0.0,
        0.0,
        0.0,
        -0.0,
        1.0,
        0.0,
        -0.0,
        -1.0,
        -0.0,
        0.0,
        0.0,
        64.0,
        0.0,
        1.0
      ],
      "mesh": 0,
      "name": "alightt_light_areat"
    },
    {
      "matrix": [
        -0.999999940395355,
        -0.0,
        -0.0,
        0.0,
        0.0,
        0.712652444839478,
        -0.701517224311829,
        0.0,
        -0.0,
        -0.701517224311829,
        -0.712652444839478,
        0.0,
        0.0,
        64.0,
        64.0,
        1.0
      ],
      "mesh": 1,
      "name": "alightf_light_areaf"
    },
    {
      "mesh": 2,
      "name": "floor_matte_grid"
    },
    {
      "matrix": [
        1.0,
        0.0,
        0.0,
        0.0,
        0.0,
        1.0,
        0.0,
        0.0,
        0.0,
        0.0,
        1.0,
        0.0,
        -2.5,
        1.0,
        0.0,
        1.0
      ],
      "mesh": 3,
      "name": "lines1_matte_gray"
    },
    {
      "matrix": [
        1.0,
        0.0,
        0.0,
        0.0,
        0.0,
        1.0,
        0.0,
        0.0,
        0.0,
        0.0,
        1.0,
        0.0,
        -2.5,
        1.0,
        0.0,
        1.0
      ],
      "mesh": 4,
      "name": "linesi_matte_gray"
    },
    {
      "matrix": [
        1.0,
        0.0,
        0.0,
        0.0,
        0.0,
        1.0,
        0.0,
        0.0,
        0.0,
        0.0,
        1.0,
        0.0,
        0.0,
        1.0,
        0.0,
        1.0
      ],
      "mesh": 5,
      "name": "lines2_matte_gray"
    },
    {
      "matrix": [
        1.0,
        0.0,
        0.0,
        0.0,
        0.0,
        1.0,
        0.0,
        0.0,
        0.0,
        0.0,
        1.0,
        0.0,
        0.0,
        1.0,
        0.0,
        1.0
      ],
      "mesh": 4,
      "name": "linesi_matte_gray!2"
    },
    {
      "matrix": [
        1.0,
        0.0,
        0.0,
        0.0,
        0.0,
        1.0,
        0.0,
        0.0,
        0.0,
        0.0,
        1.0,
        0.0,
        2.5,
        1.0,
        0.0,
        1.0
      ],
      "mesh": 5,
      "name": "lines2_matte_gray!2"
    },
    {
      "matrix": [
        1.0,
        0.0,
        0.0,
        0.0,
        0.0,
        1.0,
        0.0,
        0.0,
        0.0,
        0.0,
        1.0,
        0.0,
        2.5,
        1.0,
        0.0,
        1.0
      ],
      "mesh": 4,
      "name": "linesi_matte_gray!3"
    },
    {
      "camera": 0,
      "matrix": [
        1.0,
        0.0,
        0.0,
        0.0,
        0.0,
        0.978980422019958,
        -0.203954264521599,
        0.0,
        0.0,
        0.203954264521599,
        0.978980422019958,
        0.0,
        0.0,
        6.0,
        24.0,
        1.0
      ],
      "name": "cam3"
    }
  ],
  "scene": 0,
  "scenes": [
    {
      "name": "scene",
      "nodes": [
        0,
        1,
        2,
        3,
        4,
        5,
        6,
        7,
        8,
        9
      ]
    }
  ],
  "textures": [
    {
      "source": 0
    }
  ]
}