{
  "accessors": [
    {
      "bufferView": 0,
      "componentType": 5126,
      "count": 4,
      "max": [
        16.0,
        16.0,
        0.0
      ],
      "min": [
        -16.0,
        -16.0,
        0.0
      ],
      "type": "VEC3"
    },
    {
      "bufferView": 1,
      "componentType": 5126,
      "count": 4,
      "type": "VEC3"
    },
    {
      "bufferView": 2,
      "componentType": 5126,
      "count": 4,
      "type": "VEC2"
    },
    {
      "bufferView": 3,
      "componentType": 5125,
      "count": 6,
      "type": "SCALAR"
    },
    {
      "bufferView": 4,
      "componentType": 5126,
      "count": 4,
      "max": [
        16.0,
        16.0,
        0.0
      ],
      "min": [
        -16.0,
        -16.0,
        0.0
      ],
      "type": "VEC3"
    },
    {
      "bufferView": 5,
      "componentType": 5126,
      "count": 4,
      "type": "VEC3"
    },
    {
      "bufferView": 6,
      "componentType": 5126,
      "count": 4,
      "type": "VEC2"
    },
    {
      "bufferView": 7,
      "componentType": 5125,
      "count": 6,
      "type": "SCALAR"
    },
    {
      "bufferView": 8,
      "componentType": 5126,
      "count": 4225,
      "max": [
        20.0,
        0.0,
        20.0
      ],
      "min": [
        -20.0,
        0.0,
        -20.0
      ],
      "type": "VEC3"
    },
    {
      "bufferView": 9,
      "componentType": 5126,
      "count": 4225,
      "type": "VEC3"
    },
    {
      "bufferView": 10,
      "componentType": 5126,
      "count": 4225,
      "type": "VEC2"
    },
    {
      "bufferView": 11,
      "componentType": 5125,
      "count": 24576,
      "type": "SCALAR"
    },
    {
      "bufferView": 12,
      "componentType": 5126,
      "count": 1538,
      "max": [
        0.8419189453125,
        0.8419189453125,
        0.8419189453125
      ],
      "min": [
        -0.8419189453125,
        -0.8419189453125,
        -0.8419189453125
      ],
      "type": "VEC3"
    },
    {
      "bufferView": 13,
      "componentType": 5126,
      "count": 1538,
      "type": "VEC3"
    },
    {
      "bufferView": 14,
      "componentType": 5125,
      "count": 9216,
      "type": "SCALAR"
    },
    {
      "bufferView": 15,
      "componentType": 5126,
      "count": 7958,
      "max": [
        1.3302161693573,
        0.94195556640625,
        0.822774291038513
      ],
      "min": [
        -1.33021605014801,
        -0.97308349609375,
        -0.783889770507812
      ],
      "type": "VEC3"
    },
    {
      "bufferView": 16,
      "componentType": 5126,
      "count": 7958,
      "type": "VEC3"
    },
    {
      "bufferView": 17,
      "componentType": 5125,
      "count": 47232,
      "type": "SCALAR"
    },
    {
      "bufferView": 18,
      "componentType": 5126,
      "count": 7958,
      "max": [
        1.3302161693573,
        0.94195556640625,
        0.822774291038513
      ],
      "min": [
        -1.33021605014801,
        -0.97308349609375,
        -0.783889770507812
      ],
      "type": "VEC3"
    },
    {
      "bufferView": 19,
      "componentType": 5126,
      "count": 7958,
      "type": "VEC3"
    },
    {
      "bufferView": 20,
      "componentType": 5125,
      "count": 47232,
      "type": "SCALAR"
    }
  ],
  "asset": {
    "generator": "Yocto/gltf",
    "version": "2.0"
  },
  "bufferViews": [
    {
      "buffer": 0,
      "byteLength": 48,
      "target": 34962
    },
    {
      "buffer": 0,
      "byteLength": 48,
      "byteOffset": 48,
      "target": 34962
    },
    {
      "buffer": 0,
      "byteLength": 32,
      "byteOffset": 96,
      "target": 34962
    },
    {
      "buffer": 0,
      "byteLength": 24,
      "byteOffset": 128,
      "target": 34962
    },
    {
      "buffer": 0,
      "byteLength": 48,
      "byteOffset": 152,
      "target": 34962
    },
    {
      "buffer": 0,
      "byteLength": 48,
      "byteOffset": 200,
      "target": 34962
    },
    {
      "buffer": 0,
      "byteLength": 32,
      "byteOffset": 248,
      "target": 34962
    },
    {
      "buffer": 0,
      "byteLength": 24,
      "byteOffset": 280,
      "target": 34962
    },
    {
      "buffer": 0,
      "byteLength": 50700,
      "byteOffset": 304,
      "target": 34962
    },
    {
      "buffer": 0,
      "byteLength": 50700,
      "byteOffset": 51004,
      "target": 34962
    },
    {
      "buffer": 0,
      "byteLength": 33800,
      "byteOffset": 101704,
      "target": 34962
    },
    {
      "buffer": 0,
      "byteLength": 98304,
      "byteOffset": 135504,
      "target": 34962
    },
    {
      "buffer": 0,
      "byteLength": 18456,
      "byteOffset": 233808,
      "target": 34962
    },
    {
      "buffer": 0,
      "byteLength": 18456,
      "byteOffset": 252264,
      "target": 34962
    },
    {
      "buffer": 0,
      "byteLength": 36864,
      "byteOffset": 270720,
      "target": 34962
    },
    {
      "buffer": 0,
      "byteLength": 95496,
      "byteOffset": 307584,
      "target": 34962
    },
    {
      "buffer": 0,
      "byteLength": 95496,
      "byteOffset": 403080,
      "target": 34962
    },
    {
      "buffer": 0,
      "byteLength": 188928,
      "byteOffset": 498576,
      "target": 34962
    },
    {
      "buffer": 0,
      "byteLength": 95496,
      "byteOffset": 687504,
      "target": 34962
    },
    {
      "buffer": 0,
      "byteLength": 95496,
      "byteOffset": 783000,
      "target": 34962
    },
    {
      "buffer": 0,
      "byteLength": 188928,
      "byteOffset": 878496,
      "target": 34962
    }
  ],
  "buffers": [
    {
      "byteLength": 1067424,
      "uri": "subdiv_al.bin"
    }
  ],
  "cameras": [
    {
      "name": "cam3",
      "perspective": {
        "aspectRatio": 2.34999990463257,
        "yfov": 0.130899697542191,
        "zfar": 10000.0,
        "znear": 0.00999999977648258
      },
      "type": "perspective"
    }
  ],
  "images": [
    {
      "uri": "grid.png"
    }
  ],
  "materials": [
    {
      "emissiveFactor": [
        10.0,
        10.0,
        10.0
      ],
      "extensions": {
        "KHR_materials_pbrSpecularGlossiness": {
          "diffuseFactor": [
            0.0,
            0.0,
            0.0,
            1.0
          ],
          "glossinessFactor": 0.999899983406067,
          "specularFactor": [
            0.0,
            0.0,
            0.0
          ]
        }
      },
      "name": "light_areat"
    },
    {
      "emissiveFactor": [
        40.0,
        40.0,
        40.0
      ],
      "extensions": {
        "KHR_materials_pbrSpecularGlossiness": {
          "diffuseFactor": [
            0.0,
            0.0,
            0.0,
            1.0
          ],
          "glossinessFactor": 0.999899983406067,
          "specularFactor": [
            0.0,
            0.0,
            0.0
          ]
        }
      },
      "name": "light_areaf"
    },
    {
      "extensions": {
        "KHR_materials_pbrSpecularGlossiness": {
          "diffuseTexture": {
            "index": 0
          },
          "glossinessFactor": 0.999899983406067,
          "specularFactor": [
            0.0,
            0.0,
            0.0
          ]
        }
      },
      "name": "matte_grid"
    },
    {
      "extensions": {
        "KHR_materials_pbrSpecularGlossiness": {
          "diffuseFactor": [
            0.5,
            0.200000002980232,
            0.200000002980232,
            1.0
          ],
          "glossinessFactor": 0.75,
          "specularFactor": [
            0.0399999991059303,
            0.0399999991059303,
            0.0399999991059303
          ]
        }
      },
      "name": "plastic_red"
    },
    {
      "extensions": {
        "KHR_materials_pbrSpecularGlossiness": {
          "diffuseFactor": [
            0.200000002980232,
            0.5,
            0.200000002980232,
            1.0
          ],
          "glossinessFactor": 0.899999976158142,
          "specularFactor": [
            0.0399999991059303,
            0.0399999991059303,
            0.0399999991059303
          ]
        }
      },
      "name": "plastic_green"
    },
    {
      "extensions": {
        "KHR_materials_pbrSpecularGlossiness": {
          "diffuseFactor": [
            0.200000002980232,
            0.200000002980232,
            0.5,
            1.0
          ],
          "glossinessFactor": 0.949999988079071,
          "specularFactor": [
            0.0399999991059303,
            0.0399999991059303,
            0.0399999991059303
          ]
        }
      },
      "name": "plastic_blue"
    }
  ],
  "meshes": [
    {
      "name": "alightt_light_areat",
      "primitives": [
        {
          "attributes": {
            "NORMAL": 1,
            "POSITION": 0,
            "TEXCOORD_0": 2
          },
          "indices": 3,
          "material": 0
        }
      ]
    },
    {
      "name": "alightf_light_areaf",
      "primitives": [
        {
          "attributes": {
            "NORMAL": 5,
            "POSITION": 4,
            "TEXCOORD_0": 6
          },
          "indices": 7,
          "material": 1
        }
      ]
    },
    {
      "name": "floor_matte_grid",
      "primitives": [
        {
          "attributes": {
            "NORMAL": 9,
            "POSITION": 8,
            "TEXCOORD_0": 10
          },
          "indices": 11,
          "material": 2
        }
      ]
    },
    {
      "name": "cubes_plastic_red",
      "primitives": [
        {
          "attributes": {
            "NORMAL": 13,
            "POSITION": 12
          },
          "indices": 14,
          "material": 3
        }
      ]
    },
    {
      "name": "suzannes_plastic_green",
      "primitives": [
        {
          "attributes": {
            "NORMAL": 16,
            "POSITION": 15
          },
          "indices": 17,
          "material": 4
        }
      ]
    },
    {
      "name": "suzannes_plastic_blue",
      "primitives": [
        {
          "attributes": {
            "NORMAL": 19,
            "POSITION": 18
          },
          "indices": 20,
          "material": 5
        }
      ]
    }
  ],
  "nodes": [
    {
      "matrix": [
        1.0,
        -0.0,
        -0.0,
        0.0,
        0.0,
        -0.0,
        1.0,
        0.0,
        -0.0,
        -1.0,
        -0.0,
        0.0,
        0.0,
        64.0,
        0.0,
        1.0
      ],
      "mesh": 0,
      "name": "alightt_light_areat"
    },
    {
      "matrix": [
        -0.999999940395355,
        -0.0,
        -0.0,
        0.0,
        0.0,
        0.712652444839478,
        -0.701517224311829,
        0.0,
        -0.0,
        -0.701517224311829,
        -0.712652444839478,
        0.0,
        0.0,
        64.0,
        64.0,
        1.0
      ],
      "mesh": 1,
      "name": "alightf_light_areaf"
    },
    {
      "mesh": 2,
      "name": "floor_matte_grid"
    },
    {
      "matrix": [
        1.0,
        0.0,
        0.0,
        0.0,
        0.0,
        1.0,
        0.0,
        0.0,
        0.0,
        0.0,
        1.0,
        0.0,
        -2.5,
        1.0,
        0.0,
        1.0
      ],
      "mesh": 3,
      "name": "cubes_plastic_red"
    },
    {
      "matrix": [
        1.0,
        0.0,
        0.0,
        0.0,
        0.0,
        1.0,
        0.0,
        0.0,
        0.0,
        0.0,
        1.0,
        0.0,
        0.0,
        1.0,
        0.0,
        1.0
      ],
      "mesh": 4,
      "name": "suzannes_plastic_green"
    },
    {
      "matrix": [
        1.0,
        0.0,
        0.0,
        0.0,
        0.0,
        1.0,
        0.0,
        0.0,
        0.0,
        0.0,
        1.0,
        0.0,
        2.5,
        1.0,
        0.0,
        1.0
      ],
      "mesh": 5,
      "name": "suzannes_plastic_blue"
    },
    {
      "camera": 0,
      "matrix": [
        1.0,
        0.0,
        0.0,
        0.0,
        0.0,
        0.978980422019958,
        -0.203954264521599,
        0.0,
        0.0,
        0.203954264521599,
        0.978980422019958,
        0.0,
        0.0,
        6.0,
        24.0,
        1.0
      ],
      "name": "cam3"
    }
  ],
  "scene": 0,
  "scenes": [
    {
      "name": "scene",
      "nodes": [
        0,
        1,
        2,
        3,
        4,
        5,
        6
      ]
    }
  ],
  "textures": [
    {
      "source": 0
    }
  ]
}