{
  "accessors": [
    {
      "bufferView": 0,
      "componentType": 5126,
      "count": 1,
      "max": [
        0.0,
        0.0,
        0.0
      ],
      "min": [
        0.0,
        0.0,
        0.0
      ],
      "type": "VEC3"
    },
    {
      "bufferView": 1,
      "componentType": 5126,
      "count": 1,
      "type": "VEC3"
    },
    {
      "bufferView": 2,
      "componentType": 5126,
      "count": 1,
      "type": "SCALAR"
    },
    {
      "bufferView": 3,
      "componentType": 5125,
      "count": 1,
      "type": "SCALAR"
    },
    {
      "bufferView": 4,
      "componentType": 5126,
      "count": 4225,
      "max": [
        20.0,
        0.0,
        20.0
      ],
      "min": [
        -20.0,
        0.0,
        -20.0
      ],
      "type": "VEC3"
    },
    {
      "bufferView": 5,
      "componentType": 5126,
      "count": 4225,
      "type": "VEC3"
    },
    {
      "bufferView": 6,
      "componentType": 5126,
      "count": 4225,
      "type": "VEC2"
    },
    {
      "bufferView": 7,
      "componentType": 5125,
      "count": 24576,
      "type": "SCALAR"
    },
    {
      "bufferView": 8,
      "componentType": 5126,
      "count": 8385,
      "max": [
        1.0,
        1.0,
        0.740951120853424
      ],
      "min": [
        -1.0,
        -1.0,
        -0.740951240062714
      ],
      "type": "VEC3"
    },
    {
      "bufferView": 9,
      "componentType": 5126,
      "count": 8385,
      "type": "VEC3"
    },
    {
      "bufferView": 10,
      "componentType": 5126,
      "count": 8385,
      "type": "VEC2"
    },
    {
      "bufferView": 11,
      "componentType": 5125,
      "count": 49152,
      "type": "SCALAR"
    },
    {
      "bufferView": 12,
      "componentType": 5126,
      "count": 8385,
      "max": [
        1.0,
        1.0,
        0.740951120853424
      ],
      "min": [
        -1.0,
        -1.0,
        -0.740951240062714
      ],
      "type": "VEC3"
    },
    {
      "bufferView": 13,
      "componentType": 5126,
      "count": 8385,
      "type": "VEC3"
    },
    {
      "bufferView": 14,
      "componentType": 5126,
      "count": 8385,
      "type": "VEC2"
    },
    {
      "bufferView": 15,
      "componentType": 5125,
      "count": 49152,
      "type": "SCALAR"
    }
  ],
  "asset": {
    "generator": "Yocto/gltf",
    "version": "2.0"
  },
  "bufferViews": [
    {
      "buffer": 0,
      "byteLength": 12,
      "target": 34962
    },
    {
      "buffer": 0,
      "byteLength": 12,
      "byteOffset": 12,
      "target": 34962
    },
    {
      "buffer": 0,
      "byteLength": 4,
      "byteOffset": 24,
      "target": 34962
    },
    {
      "buffer": 0,
      "byteLength": 4,
      "byteOffset": 28,
      "target": 34962
    },
    {
      "buffer": 0,
      "byteLength": 50700,
      "byteOffset": 32,
      "target": 34962
    },
    {
      "buffer": 0,
      "byteLength": 50700,
      "byteOffset": 50732,
      "target": 34962
    },
    {
      "buffer": 0,
      "byteLength": 33800,
      "byteOffset": 101432,
      "target": 34962
    },
    {
      "buffer": 0,
      "byteLength": 98304,
      "byteOffset": 135232,
      "target": 34962
    },
    {
      "buffer": 0,
      "byteLength": 100620,
      "byteOffset": 233536,
      "target": 34962
    },
    {
      "buffer": 0,
      "byteLength": 100620,
      "byteOffset": 334156,
      "target": 34962
    },
    {
      "buffer": 0,
      "byteLength": 67080,
      "byteOffset": 434776,
      "target": 34962
    },
    {
      "buffer": 0,
      "byteLength": 196608,
      "byteOffset": 501856,
      "target": 34962
    },
    {
      "buffer": 0,
      "byteLength": 100620,
      "byteOffset": 698464,
      "target": 34962
    },
    {
      "buffer": 0,
      "byteLength": 100620,
      "byteOffset": 799084,
      "target": 34962
    },
    {
      "buffer": 0,
      "byteLength": 67080,
      "byteOffset": 899704,
      "target": 34962
    },
    {
      "buffer": 0,
      "byteLength": 196608,
      "byteOffset": 966784,
      "target": 34962
    }
  ],
  "buffers": [
    {
      "byteLength": 1163392,
      "uri": "normalmap_pl.bin"
    }
  ],
  "cameras": [
    {
      "name": "cam3",
      "perspective": {
        "aspectRatio": 2.34999990463257,
        "yfov": 0.130899697542191,
        "zfar": 10000.0,
        "znear": 0.00999999977648258
      },
      "type": "perspective"
    }
  ],
  "images": [
    {
      "uri": "grid.png"
    },
    {
      "uri": "colored.png"
    },
    {
      "uri": "bumpn.png"
    }
  ],
  "materials": [
    {
      "emissiveFactor": [
        400.0,
        400.0,
        400.0
      ],
      "extensions": {
        "KHR_materials_pbrSpecularGlossiness": {
          "diffuseFactor": [
            0.0,
            0.0,
            0.0,
            1.0
          ],
          "glossinessFactor": 0.999899983406067,
          "specularFactor": [
            0.0,
            0.0,
            0.0
          ]
        }
      },
      "name": "light_point"
    },
    {
      "extensions": {
        "KHR_materials_pbrSpecularGlossiness": {
          "diffuseTexture": {
            "index": 0
          },
          "glossinessFactor": 0.999899983406067,
          "specularFactor": [
            0.0,
            0.0,
            0.0
          ]
        }
      },
      "name": "matte_grid"
    },
    {
      "extensions": {
        "KHR_materials_pbrSpecularGlossiness": {
          "diffuseFactor": [
            0.200000002980232,
            0.200000002980232,
            0.5,
            1.0
          ],
          "glossinessFactor": 0.949999988079071,
          "specularFactor": [
            0.0399999991059303,
            0.0399999991059303,
            0.0399999991059303
          ]
        }
      },
      "name": "plastic_blue"
    },
    {
      "extensions": {
        "KHR_materials_pbrSpecularGlossiness": {
          "diffuseTexture": {
            "index": 1
          },
          "glossinessFactor": 0.75,
          "specularFactor": [
            0.0399999991059303,
            0.0399999991059303,
            0.0399999991059303
          ]
        }
      },
      "name": "plastic_bumped",
      "normalTexture": {
        "index": 2
      }
    }
  ],
  "meshes": [
    {
      "name": "plight_light_point",
      "primitives": [
        {
          "attributes": {
            "NORMAL": 1,
            "POSITION": 0,
            "RADIUS": 2
          },
          "indices": 3,
          "material": 0,
          "mode": 0
        }
      ]
    },
    {
      "name": "floor_matte_grid",
      "primitives": [
        {
          "attributes": {
            "NORMAL": 5,
            "POSITION": 4,
            "TEXCOORD_0": 6
          },
          "indices": 7,
          "material": 1
        }
      ]
    },
    {
      "name": "flipcapsphere_plastic_blue",
      "primitives": [
        {
          "attributes": {
            "NORMAL": 9,
            "POSITION": 8,
            "TEXCOORD_0": 10
          },
          "indices": 11,
          "material": 2
        }
      ]
    },
    {
      "name": "flipcapsphere_plastic_bumped",
      "primitives": [
        {
          "attributes": {
            "NORMAL": 13,
            "POSITION": 12,
            "TEXCOORD_0": 14
          },
          "indices": 15,
          "material": 3
        }
      ]
    }
  ],
  "nodes": [
    {
      "matrix": [
        1.0,
        0.0,
        0.0,
        0.0,
        0.0,
        1.0,
        0.0,
        0.0,
        0.0,
        0.0,
        1.0,
        0.0,
        -2.0,
        10.0,
        8.0,
        1.0
      ],
      "mesh": 0,
      "name": "plight_light_point"
    },
    {
      "matrix": [
        1.0,
        0.0,
        0.0,
        0.0,
        0.0,
        1.0,
        0.0,
        0.0,
        0.0,
        0.0,
        1.0,
        0.0,
        2.0,
        10.0,
        8.0,
        1.0
      ],
      "mesh": 0,
      "name": "plight_light_point!2"
    },
    {
      "mesh": 1,
      "name": "floor_matte_grid"
    },
    {
      "matrix": [
        1.0,
        0.0,
        0.0,
        0.0,
        0.0,
        1.0,
        0.0,
        0.0,
        0.0,
        0.0,
        1.0,
        0.0,
        -2.5,
        1.0,
        0.0,
        1.0
      ],
      "mesh": 2,
      "name": "flipcapsphere_plastic_blue"
    },
    {
      "matrix": [
        1.0,
        0.0,
        0.0,
        0.0,
        0.0,
        1.0,
        0.0,
        0.0,
        0.0,
        0.0,
        1.0,
        0.0,
        0.0,
        1.0,
        0.0,
        1.0
      ],
      "mesh": 3,
      "name": "flipcapsphere_plastic_bumped"
    },
    {
      "matrix": [
        1.0,
        0.0,
        0.0,
        0.0,
        0.0,
        1.0,
        0.0,
        0.0,
        0.0,
        0.0,
        1.0,
        0.0,
        2.5,
        1.0,
        0.0,
        1.0
      ],
      "mesh": 3,
      "name": "flipcapsphere_plastic_bumped!2"
    },
    {
      "camera": 0,
      "matrix": [
        1.0,
        0.0,
        0.0,
        0.0,
        0.0,
        0.978980422019958,
        -0.203954264521599,
        0.0,
        0.0,
        0.203954264521599,
        0.978980422019958,
        0.0,
        0.0,
        6.0,
        24.0,
        1.0
      ],
      "name": "cam3"
    }
  ],
  "scene": 0,
  "scenes": [
    {
      "name": "scene",
      "nodes": [
        0,
        1,
        2,
        3,
        4,
        5,
        6
      ]
    }
  ],
  "textures": [
    {
      "source": 0
    },
    {
      "source": 1
    },
    {
      "source": 2
    }
  ]
}